# xmcd
#
# Track frame offsets:
#  150
#  1224
#  6054
#  36602
#  40413
#  72060
#  75091
#  96582
#  98602
#  126586
#  130961
#  166997
#
# Disc length: 2528 seconds
#
# Revision: 0
# Processed by: cddbd v1.5.1PL0 Copyright (c) Steve Scherf et al.
# Submitted via: Collectorz.com_Music_Collector 6.9
#
DISCID=9509de0c
DTITLE=John Legend - Stripped Down/The Dazzling Sessions
DYEAR=2005
DGENRE=Jam Bands - R&B
TTITLE0=We Love To Play
TTITLE1=Band Warm Up
TTITLE2=Ordinary People
TTITLE3=I Get Inspiration
TTITLE4=So High
TTITLE5=John the Legend
TTITLE6=Number One
TTITLE7=Out of the Shell
TTITLE8=Refuge
TTITLE9=We Chose Visions
TTITLE10=Visions (Stevie Wonder Cover)
TTITLE11=Got Started Interview
EXTD=
EXTT0=
EXTT1=
EXTT2=
EXTT3=
EXTT4=
EXTT5=
EXTT6=
EXTT7=
EXTT8=
EXTT9=
EXTT10=
EXTT11=
PLAYORDER=
